<svg class="loader" width="23" height="22" viewBox="0 0 23 22" fill="none" xmlns="http://www.w3.org/2000/svg">
<path d="M2.15625 7.5625H20.8438" stroke="#FF6B00" stroke-opacity="0.87" stroke-width="2" stroke-miterlimit="10" stroke-linecap="round" stroke-linejoin="round"/>
<path d="M5.03125 6.1875C4.81563 6.1875 4.67188 6.11875 4.52813 5.98125C4.38438 5.84375 4.3125 5.70625 4.3125 5.5C4.3125 5.29375 4.38438 5.15625 4.52813 5.01875L4.6 4.95C4.67188 4.95 4.67187 4.88125 4.74375 4.88125C4.81562 4.8125 4.81563 4.8125 4.8875 4.8125C4.95938 4.8125 5.10312 4.8125 5.175 4.8125C5.24687 4.8125 5.24688 4.8125 5.31875 4.88125C5.39063 4.88125 5.39062 4.95 5.4625 4.95L5.53437 5.01875C5.60625 5.0875 5.67813 5.15625 5.67813 5.225C5.75 5.29375 5.75 5.43125 5.75 5.5C5.75 5.56875 5.75 5.70625 5.67813 5.775C5.67813 5.84375 5.60625 5.9125 5.53437 5.98125C5.39062 6.11875 5.24687 6.1875 5.03125 6.1875Z" fill="#FF6B00" fill-opacity="0.87"/>
<path d="M7.1875 6.18751C6.97188 6.18751 6.82813 6.11876 6.68438 5.98126C6.54063 5.84376 6.46875 5.70626 6.46875 5.50001C6.46875 5.43126 6.46875 5.29376 6.54063 5.22501C6.6125 5.15626 6.6125 5.08751 6.68438 5.01876C6.75625 4.95001 6.82813 4.88126 6.9 4.88126C7.1875 4.74376 7.475 4.81251 7.69062 5.01876C7.7625 5.08751 7.83437 5.15626 7.83437 5.22501C7.90625 5.29376 7.90625 5.43126 7.90625 5.50001C7.90625 5.70626 7.83437 5.84376 7.69062 5.98126C7.54687 6.11876 7.40312 6.18751 7.1875 6.18751Z" fill="#FF6B00" fill-opacity="0.87"/>
<path d="M9.34375 6.1875C9.27188 6.1875 9.12813 6.1875 9.05625 6.11875C8.98438 6.05 8.9125 6.05 8.84063 5.98125C8.76875 5.9125 8.69688 5.84375 8.69688 5.775C8.625 5.70625 8.625 5.56875 8.625 5.5C8.625 5.43125 8.625 5.29375 8.69688 5.225C8.76875 5.15625 8.76875 5.0875 8.84063 5.01875C9.12813 4.74375 9.55937 4.74375 9.84687 5.01875C9.91875 5.0875 9.99062 5.15625 9.99062 5.225C10.0625 5.29375 10.0625 5.43125 10.0625 5.5C10.0625 5.56875 10.0625 5.70625 9.99062 5.775C9.91875 5.84375 9.91875 5.9125 9.84687 5.98125C9.70312 6.11875 9.55937 6.1875 9.34375 6.1875Z" fill="#FF6B00" fill-opacity="0.87"/>
<path d="M19.4062 3.4375H3.59375C2.80312 3.4375 2.15625 4.05625 2.15625 4.8125V17.1875C2.15625 17.9438 2.80312 18.5625 3.59375 18.5625H19.4062C20.1969 18.5625 20.8438 17.9438 20.8438 17.1875V4.8125C20.8438 4.05625 20.1969 3.4375 19.4062 3.4375Z" stroke="#FF6B00" stroke-opacity="0.87" stroke-width="2" stroke-miterlimit="10" stroke-linecap="round" stroke-linejoin="round"/>
<path d="M7.90625 11L5.75 13.0625L7.90625 15.125" stroke="#FF6B00" stroke-opacity="0.87" stroke-width="2" stroke-miterlimit="10" stroke-linecap="round" stroke-linejoin="round"/>
<path d="M15.0938 11L17.25 13.0625L15.0938 15.125" stroke="#FF6B00" stroke-opacity="0.87" stroke-width="2" stroke-miterlimit="10" stroke-linecap="round" stroke-linejoin="round"/>
<path d="M12.9375 10.3125L10.0625 15.8125" stroke="#FF6B00" stroke-opacity="0.87" stroke-width="2" stroke-miterlimit="10" stroke-linecap="round" stroke-linejoin="round"/>
</svg>
