<svg width="18" height="18" viewBox="0 0 18 18" fill="none" xmlns="http://www.w3.org/2000/svg">
<g id="github-icon-1-logo-svg-vector 1" clip-path="url(#clip0_3_22)">
<g id="Group">
<path id="Vector" d="M8.96519 0C4.01449 0 0 4.12602 0 9.21587C0 13.2877 2.5688 16.7422 6.13097 17.9608C6.579 18.0461 6.74353 17.7609 6.74353 17.5175C6.74353 17.2978 6.73516 16.5717 6.73137 15.8017C4.23717 16.3591 3.71088 14.7143 3.71088 14.7143C3.30307 13.6491 2.71547 13.3659 2.71547 13.3659C1.90209 12.7939 2.77678 12.8056 2.77678 12.8056C3.67706 12.8706 4.15111 13.7553 4.15111 13.7553C4.9507 15.1642 6.24839 14.7569 6.75998 14.5215C6.84042 13.9257 7.0728 13.5193 7.32916 13.2891C5.33791 13.056 3.24457 12.2658 3.24457 8.73456C3.24457 7.72845 3.5948 6.90628 4.16834 6.26091C4.07524 6.02875 3.7684 5.09144 4.25517 3.82201C4.25517 3.82201 5.00801 3.57431 6.72124 4.76669C7.43632 4.56243 8.20329 4.46009 8.96519 4.45662C9.7271 4.46009 10.4946 4.56243 11.2111 4.76669C12.9223 3.57431 13.6741 3.82201 13.6741 3.82201C14.1621 5.09144 13.8551 6.02875 13.762 6.26091C14.3368 6.90628 14.6846 7.72838 14.6846 8.73456C14.6846 12.2742 12.5873 13.0536 10.591 13.2817C10.9126 13.5678 11.1991 14.1286 11.1991 14.9884C11.1991 16.2215 11.1887 17.2139 11.1887 17.5175C11.1887 17.7627 11.3501 18.0501 11.8046 17.9596C15.3648 16.7396 17.9303 13.2864 17.9303 9.21587C17.9303 4.12602 13.9164 0 8.96519 0Z" fill="#868F8C"/>
<path id="Vector_2" d="M3.35777 13.1282C3.33809 13.174 3.26791 13.1877 3.20414 13.1563C3.1391 13.1263 3.10254 13.0638 3.12363 13.0179C3.14297 12.9707 3.21314 12.9576 3.27804 12.9892C3.34322 13.0192 3.38034 13.0823 3.35777 13.1282ZM3.79877 13.5327C3.75602 13.5735 3.67242 13.5545 3.61568 13.4901C3.55704 13.4259 3.54607 13.34 3.58945 13.2986C3.63354 13.2579 3.71461 13.2769 3.77339 13.3412C3.83203 13.4062 3.84342 13.4916 3.7987 13.5328M4.10133 14.0502C4.04634 14.0895 3.95648 14.0527 3.90101 13.9707C3.84609 13.8888 3.84609 13.7905 3.9022 13.7511C3.95789 13.7117 4.04634 13.7472 4.10259 13.8285C4.15744 13.9118 4.15744 14.0101 4.10126 14.0503M4.61292 14.6496C4.56377 14.7053 4.45915 14.6904 4.38251 14.6143C4.30418 14.54 4.28231 14.4346 4.3316 14.3789C4.38131 14.3231 4.48657 14.3388 4.56377 14.4141C4.64161 14.4883 4.66531 14.5945 4.61292 14.6496ZM5.27414 14.852C5.25256 14.9241 5.15173 14.9569 5.0502 14.9263C4.94881 14.8947 4.88243 14.8102 4.90289 14.7372C4.92399 14.6646 5.02524 14.6304 5.12754 14.6632C5.22879 14.6947 5.29524 14.7786 5.27414 14.852ZM6.02677 14.9378C6.0293 15.0138 5.94316 15.0769 5.83657 15.0782C5.72934 15.0806 5.64265 15.0191 5.64152 14.9444C5.64152 14.8676 5.72569 14.8052 5.83284 14.8034C5.93944 14.8012 6.02677 14.8623 6.02677 14.9378ZM6.76603 14.9087C6.77883 14.9828 6.70472 15.059 6.5989 15.0792C6.49484 15.0988 6.39851 15.053 6.38522 14.9795C6.37228 14.9035 6.4478 14.8274 6.55165 14.8076C6.65768 14.7887 6.75253 14.8333 6.76603 14.9087Z" fill="#868F8C"/>
</g>
</g>
<defs>
<clipPath id="clip0_3_22">
<rect width="18" height="18" fill="white"/>
</clipPath>
</defs>
</svg>
