<svg width="18" height="18" viewBox="0 0 18 18" fill="none" xmlns="http://www.w3.org/2000/svg">
<g id="linkedin-icon-logo-svg-vector 1" clip-path="url(#clip0_3_26)">
<path id="Vector" d="M9.00004 1.52588e-05C4.02945 1.52588e-05 5.72205e-05 4.02941 5.72205e-05 9C5.72205e-05 13.9706 4.02945 18 9.00004 18C13.9706 18 18.0001 13.9706 18.0001 9C18 4.02941 13.9706 1.52588e-05 9.00004 1.52588e-05ZM6.59883 13.3511H4.62279V6.96706H6.59883V13.3511ZM5.60139 6.13103C4.95604 6.13103 4.43287 5.60359 4.43287 4.95307C4.43287 4.30247 4.95611 3.77507 5.60139 3.77507C6.24667 3.77507 6.76984 4.30247 6.76984 4.95307C6.76988 5.60363 6.24671 6.13103 5.60139 6.13103ZM14.004 13.3511H12.0376V10C12.0376 9.0809 11.6884 8.56785 10.9617 8.56785C10.1707 8.56785 9.75752 9.10219 9.75752 10V13.3511H7.86228V6.96706H9.75752V7.82688C9.75752 7.82688 10.3276 6.77233 11.6813 6.77233C13.035 6.77233 14.0041 7.5989 14.0041 9.30881L14.004 13.3511Z" fill="#868F8C"/>
</g>
<defs>
<clipPath id="clip0_3_26">
<rect width="18" height="18" fill="white"/>
</clipPath>
</defs>
</svg>
